<?xml version="1.0" encoding="UTF-8" standalone="no"?>
<!-- Created with Inkscape (http://www.inkscape.org/) -->

<svg
   xmlns:dc="http://purl.org/dc/elements/1.1/"
   xmlns:cc="http://creativecommons.org/ns#"
   xmlns:rdf="http://www.w3.org/1999/02/22-rdf-syntax-ns#"
   xmlns:svg="http://www.w3.org/2000/svg"
   xmlns="http://www.w3.org/2000/svg"
   xmlns:sodipodi="http://sodipodi.sourceforge.net/DTD/sodipodi-0.dtd"
   xmlns:inkscape="http://www.inkscape.org/namespaces/inkscape"
   width="28.222221mm"
   height="28.222221mm"
   viewBox="0 0 99.999997 99.999997"
   id="svg5802"
   version="1.1"
   inkscape:version="0.91 r13725"
   sodipodi:docname="10_mana.svg">
  <defs
     id="defs5804" />
  <sodipodi:namedview
     id="base"
     pagecolor="#ffffff"
     bordercolor="#666666"
     borderopacity="1.0"
     inkscape:pageopacity="0.0"
     inkscape:pageshadow="2"
     inkscape:zoom="0.35"
     inkscape:cx="1642.1429"
     inkscape:cy="9.9999964"
     inkscape:document-units="px"
     inkscape:current-layer="layer1"
     showgrid="false"
     fit-margin-top="0"
     fit-margin-left="0"
     fit-margin-right="0"
     fit-margin-bottom="0"
     inkscape:window-width="1678"
     inkscape:window-height="1029"
     inkscape:window-x="0"
     inkscape:window-y="19"
     inkscape:window-maximized="1" />
  <metadata
     id="metadata5807">
    <rdf:RDF>
      <cc:Work
         rdf:about="">
        <dc:format>image/svg+xml</dc:format>
        <dc:type
           rdf:resource="http://purl.org/dc/dcmitype/StillImage" />
        <dc:title></dc:title>
      </cc:Work>
    </rdf:RDF>
  </metadata>
  <g
     inkscape:label="Layer 1"
     inkscape:groupmode="layer"
     id="layer1"
     transform="translate(1267.1429,-442.3622)">
    <g
       transform="translate(-322.14286,547.3642)"
       id="g4526">
      <circle
         style="fill:#cac5c0"
         cx="-895"
         cy="-55.001999"
         r="50"
         id="circle4528" />
    </g>
    <path
       inkscape:connector-curvature="0"
       style="fill:#0d0f0f"
       d="m -1231.8369,460.9972 0,50.439 c 0,5.998 2.567,8.998 7.693,8.998 l 1.305,0 0,3.42 -26.866,0 0,-3.42 1.727,0 c 4.931,0 7.4,-3 7.4,-8.998 l 0,-33.08 c 0,-6.08 -2.155,-9.123 -6.467,-9.123 l -2.66,0 0,-3.424 1.016,0 c 5.238,0 9.969,-1.604 14.191,-4.813 l 2.661,0.001 0,0 z m 9.76,33.328 c 0,-7.857 1.646,-15.082 4.94,-21.668 4.142,-8.193 9.805,-12.293 16.982,-12.293 6.931,0 12.422,3.508 16.476,10.516 3.296,5.748 4.945,12.381 4.945,19.898 0,7.859 -1.648,15.039 -4.945,21.545 -4.141,8.029 -9.757,12.041 -16.853,12.041 -6.842,0 -12.293,-3.465 -16.352,-10.395 -3.464,-5.828 -5.193,-12.376 -5.193,-19.644 z m 9.122,-3.676 c 0,6.68 0.718,12.676 2.156,17.996 2.197,8.195 5.785,12.295 10.771,12.295 8.111,0 12.165,-8.447 12.165,-25.346 0,-20.869 -4.394,-31.301 -13.182,-31.301 -7.941,0 -11.912,8.105 -11.912,24.328 l 0,2.028 0,0 z"
       id="path4530" />
  </g>
</svg>
