<?xml version="1.0" encoding="UTF-8" standalone="no"?>
<!-- Created with Inkscape (http://www.inkscape.org/) -->

<svg
   xmlns:dc="http://purl.org/dc/elements/1.1/"
   xmlns:cc="http://creativecommons.org/ns#"
   xmlns:rdf="http://www.w3.org/1999/02/22-rdf-syntax-ns#"
   xmlns:svg="http://www.w3.org/2000/svg"
   xmlns="http://www.w3.org/2000/svg"
   xmlns:sodipodi="http://sodipodi.sourceforge.net/DTD/sodipodi-0.dtd"
   xmlns:inkscape="http://www.inkscape.org/namespaces/inkscape"
   width="28.222221mm"
   height="28.222221mm"
   viewBox="0 0 99.999997 99.999997"
   id="svg5850"
   version="1.1"
   inkscape:version="0.91 r13725"
   sodipodi:docname="11_mana.svg">
  <defs
     id="defs5852" />
  <sodipodi:namedview
     id="base"
     pagecolor="#ffffff"
     bordercolor="#666666"
     borderopacity="1.0"
     inkscape:pageopacity="0.0"
     inkscape:pageshadow="2"
     inkscape:zoom="0.35"
     inkscape:cx="1176.4286"
     inkscape:cy="-104.28571"
     inkscape:document-units="px"
     inkscape:current-layer="layer1"
     showgrid="false"
     fit-margin-top="0"
     fit-margin-left="0"
     fit-margin-right="0"
     fit-margin-bottom="0"
     inkscape:window-width="1678"
     inkscape:window-height="1029"
     inkscape:window-x="0"
     inkscape:window-y="19"
     inkscape:window-maximized="1" />
  <metadata
     id="metadata5855">
    <rdf:RDF>
      <cc:Work
         rdf:about="">
        <dc:format>image/svg+xml</dc:format>
        <dc:type
           rdf:resource="http://purl.org/dc/dcmitype/StillImage" />
        <dc:title></dc:title>
      </cc:Work>
    </rdf:RDF>
  </metadata>
  <g
     inkscape:label="Layer 1"
     inkscape:groupmode="layer"
     id="layer1"
     transform="translate(801.42857,-328.07649)">
    <g
       transform="translate(38.571429,433.07849)"
       id="g4520">
      <circle
         style="fill:#cac5c0"
         cx="-790"
         cy="-55.001999"
         r="50"
         id="circle4522" />
    </g>
    <path
       inkscape:connector-curvature="0"
       style="fill:#0d0f0f"
       d="m -761.59757,346.39849 0,50.84 c 0,6.049 2.516,9.07 7.536,9.07 l 1.279,0 0,3.449 -27.081,0 0,-3.449 1.788,0 c 5.109,0 7.667,-3.021 7.667,-9.07 l 0,-33.34 c 0,-6.133 -2.173,-9.195 -6.518,-9.195 l -2.683,0 0,-3.449 1.024,0 c 5.28,0 10.047,-1.617 14.304,-4.855 l 2.684,-0.001 0,0 z m 32.449,0 0,50.84 c 0,6.049 2.511,9.07 7.537,9.07 l 1.278,0 0,3.449 -27.086,0 0,-3.449 1.788,0 c 5.115,0 7.667,-3.021 7.667,-9.07 l 0,-33.34 c 0,-6.133 -2.173,-9.195 -6.513,-9.195 l -2.682,0 0,-3.449 1.019,0 c 5.28,0 10.047,-1.617 14.31,-4.855 l 2.682,-0.001 0,0 z"
       id="path4524" />
  </g>
</svg>
