<?xml version="1.0" encoding="UTF-8" standalone="no"?>
<!-- Created with Inkscape (http://www.inkscape.org/) -->

<svg
   xmlns:dc="http://purl.org/dc/elements/1.1/"
   xmlns:cc="http://creativecommons.org/ns#"
   xmlns:rdf="http://www.w3.org/1999/02/22-rdf-syntax-ns#"
   xmlns:svg="http://www.w3.org/2000/svg"
   xmlns="http://www.w3.org/2000/svg"
   xmlns:sodipodi="http://sodipodi.sourceforge.net/DTD/sodipodi-0.dtd"
   xmlns:inkscape="http://www.inkscape.org/namespaces/inkscape"
   width="28.222221mm"
   height="28.222221mm"
   viewBox="0 0 99.999997 99.999997"
   id="svg5898"
   version="1.1"
   inkscape:version="0.91 r13725"
   sodipodi:docname="12_mana.svg">
  <defs
     id="defs5900" />
  <sodipodi:namedview
     id="base"
     pagecolor="#ffffff"
     bordercolor="#666666"
     borderopacity="1.0"
     inkscape:pageopacity="0.0"
     inkscape:pageshadow="2"
     inkscape:zoom="0.35"
     inkscape:cx="50"
     inkscape:cy="49.999996"
     inkscape:document-units="px"
     inkscape:current-layer="layer1"
     showgrid="false"
     fit-margin-top="0"
     fit-margin-left="0"
     fit-margin-right="0"
     fit-margin-bottom="0"
     inkscape:window-width="1678"
     inkscape:window-height="1029"
     inkscape:window-x="0"
     inkscape:window-y="19"
     inkscape:window-maximized="1" />
  <metadata
     id="metadata5903">
    <rdf:RDF>
      <cc:Work
         rdf:about="">
        <dc:format>image/svg+xml</dc:format>
        <dc:type
           rdf:resource="http://purl.org/dc/dcmitype/StillImage" />
        <dc:title></dc:title>
      </cc:Work>
    </rdf:RDF>
  </metadata>
  <g
     inkscape:label="Layer 1"
     inkscape:groupmode="layer"
     id="layer1"
     transform="translate(-325,-482.3622)">
    <g
       transform="translate(1060,587.3642)"
       id="g4514">
      <circle
         style="fill:#cac5c0"
         cx="-685"
         cy="-55.001999"
         r="50"
         id="circle4516" />
    </g>
    <path
       inkscape:connector-curvature="0"
       style="fill:#0d0f0f"
       d="m 360.63,501.5792 0,49.18 c 0,5.875 2.428,8.816 7.277,8.816 l 1.278,0 0,3.445 -26.185,0 0,-3.445 1.533,0 c 4.938,0 7.406,-2.941 7.406,-8.816 l 0,-32.32 c 0,-5.955 -2.043,-8.939 -6.128,-8.939 l -2.682,0 0,-3.322 1.019,0 c 5.109,0 9.709,-1.531 13.795,-4.598 l 2.687,-10e-4 0,0 z m 50.965,46.367 -4.471,15.203 -37.429,0 0,-3.32 c 1.793,-2.043 5.749,-6.133 11.882,-12.266 3.659,-3.66 7.324,-7.578 10.988,-11.748 1.788,-2.049 3.191,-3.748 4.215,-5.115 2.126,-3.232 3.191,-6.465 3.191,-9.703 0,-3.238 -0.981,-6.092 -2.938,-8.561 -1.959,-2.471 -4.559,-3.705 -7.791,-3.705 -6.731,0 -12.012,4.598 -15.843,13.799 l -3.321,-1.279 c 4.601,-12.775 11.752,-19.164 21.461,-19.164 4.767,0 8.857,1.621 12.262,4.855 3.404,3.238 5.109,7.281 5.109,12.137 0,6.215 -3.534,12.262 -10.598,18.141 l -7.282,5.873 c -4.688,3.92 -8.561,7.625 -11.628,11.111 -0.254,0.262 -0.681,0.729 -1.273,1.41 l 19.544,0 c 2.979,0 5.192,-0.557 6.643,-1.664 1.445,-1.102 2.766,-3.107 3.956,-6.004 l 3.323,0 z"
       id="path4518" />
  </g>
</svg>
