<?xml version="1.0" encoding="UTF-8" standalone="no"?>
<!-- Created with Inkscape (http://www.inkscape.org/) -->

<svg
   xmlns:dc="http://purl.org/dc/elements/1.1/"
   xmlns:cc="http://creativecommons.org/ns#"
   xmlns:rdf="http://www.w3.org/1999/02/22-rdf-syntax-ns#"
   xmlns:svg="http://www.w3.org/2000/svg"
   xmlns="http://www.w3.org/2000/svg"
   xmlns:sodipodi="http://sodipodi.sourceforge.net/DTD/sodipodi-0.dtd"
   xmlns:inkscape="http://www.inkscape.org/namespaces/inkscape"
   width="28.222221mm"
   height="28.222221mm"
   viewBox="0 0 99.999997 99.999997"
   id="svg5466"
   version="1.1"
   inkscape:version="0.91 r13725"
   sodipodi:docname="3_mana.svg">
  <defs
     id="defs5468" />
  <sodipodi:namedview
     id="base"
     pagecolor="#ffffff"
     bordercolor="#666666"
     borderopacity="1.0"
     inkscape:pageopacity="0.0"
     inkscape:pageshadow="2"
     inkscape:zoom="0.35"
     inkscape:cx="-9.2857"
     inkscape:cy="-110"
     inkscape:document-units="px"
     inkscape:current-layer="layer1"
     showgrid="false"
     fit-margin-top="0"
     fit-margin-left="0"
     fit-margin-right="0"
     fit-margin-bottom="0"
     inkscape:window-width="1678"
     inkscape:window-height="1029"
     inkscape:window-x="0"
     inkscape:window-y="19"
     inkscape:window-maximized="1" />
  <metadata
     id="metadata5471">
    <rdf:RDF>
      <cc:Work
         rdf:about="">
        <dc:format>image/svg+xml</dc:format>
        <dc:type
           rdf:resource="http://purl.org/dc/dcmitype/StillImage" />
        <dc:title></dc:title>
      </cc:Work>
    </rdf:RDF>
  </metadata>
  <g
     inkscape:label="Layer 1"
     inkscape:groupmode="layer"
     id="layer1"
     transform="translate(-384.2857,-322.3622)">
    <g
       transform="translate(1014.2857,532.3642)"
       id="g4430">
      <circle
         style="fill:#cac5c0"
         cx="-580"
         cy="-160.002"
         r="50"
         id="circle4432" />
    </g>
    <path
       inkscape:connector-curvature="0"
       style="fill:#0d0f0f"
       d="m 423.84671,374.9262 -2.018,-3.771 1.337,-0.807 c 5.174,-3.145 9.903,-6.33 14.189,-9.563 4.284,-3.232 6.427,-6.915 6.427,-11.048 0,-2.778 -1.029,-5.112 -3.085,-6.998 -2.061,-1.892 -4.472,-2.834 -7.244,-2.834 -6.439,0 -13.234,4.001 -20.392,11.991 l -3.354,-2.559 c 7.453,-11.316 16.566,-16.974 27.341,-16.974 4.757,0 8.795,1.168 12.122,3.503 3.771,2.607 5.655,6.153 5.655,10.642 0,3.229 -1.349,6.374 -4.039,9.426 -1.528,1.798 -4.226,4.132 -8.083,7.004 l -1.616,1.213 c 0.718,-0.089 1.572,-0.134 2.56,-0.134 4.937,0 8.998,1.887 12.188,5.657 3.188,3.771 4.783,8.17 4.783,13.196 0,8.532 -3.595,15.667 -10.774,21.416 -6.647,5.387 -14.325,8.077 -23.032,8.077 -7.991,0 -14.276,-1.748 -18.858,-5.249 l 2.429,-3.371 c 5.387,2.608 10.279,3.907 14.681,3.907 6.373,0 12.051,-2.109 17.032,-6.33 4.988,-4.22 7.475,-9.469 7.475,-15.755 0,-4.132 -1.255,-7.655 -3.77,-10.576 -2.516,-2.915 -5.793,-4.374 -9.832,-4.374 -3.684,0.002 -7.723,1.437 -12.122,4.311 z"
       id="path4434" />
  </g>
</svg>
