<?xml version="1.0" encoding="UTF-8" standalone="no"?>
<!-- Created with Inkscape (http://www.inkscape.org/) -->

<svg
   xmlns:dc="http://purl.org/dc/elements/1.1/"
   xmlns:cc="http://creativecommons.org/ns#"
   xmlns:rdf="http://www.w3.org/1999/02/22-rdf-syntax-ns#"
   xmlns:svg="http://www.w3.org/2000/svg"
   xmlns="http://www.w3.org/2000/svg"
   xmlns:sodipodi="http://sodipodi.sourceforge.net/DTD/sodipodi-0.dtd"
   xmlns:inkscape="http://www.inkscape.org/namespaces/inkscape"
   width="28.222221mm"
   height="28.222221mm"
   viewBox="0 0 99.999997 99.999997"
   id="svg5514"
   version="1.1"
   inkscape:version="0.91 r13725"
   sodipodi:docname="4_mana.svg">
  <defs
     id="defs5516" />
  <sodipodi:namedview
     id="base"
     pagecolor="#ffffff"
     bordercolor="#666666"
     borderopacity="1.0"
     inkscape:pageopacity="0.0"
     inkscape:pageshadow="2"
     inkscape:zoom="0.35"
     inkscape:cx="-203.5714"
     inkscape:cy="-78.571424"
     inkscape:document-units="px"
     inkscape:current-layer="layer1"
     showgrid="false"
     fit-margin-top="0"
     fit-margin-left="0"
     fit-margin-right="0"
     fit-margin-bottom="0"
     inkscape:window-width="1678"
     inkscape:window-height="1029"
     inkscape:window-x="0"
     inkscape:window-y="19"
     inkscape:window-maximized="1" />
  <metadata
     id="metadata5519">
    <rdf:RDF>
      <cc:Work
         rdf:about="">
        <dc:format>image/svg+xml</dc:format>
        <dc:type
           rdf:resource="http://purl.org/dc/dcmitype/StillImage" />
        <dc:title></dc:title>
      </cc:Work>
    </rdf:RDF>
  </metadata>
  <g
     inkscape:label="Layer 1"
     inkscape:groupmode="layer"
     id="layer1"
     transform="translate(-578.5714,-353.79078)">
    <g
       transform="translate(1103.5714,563.79278)"
       id="g4436">
      <circle
         style="fill:#cac5c0"
         cx="-475"
         cy="-160.002"
         r="50"
         id="circle4438" />
    </g>
    <path
       inkscape:connector-curvature="0"
       style="fill:#0d0f0f"
       d="m 642.84143,421.15177 0,6.723 c 0,7.684 2.695,11.525 8.094,11.525 l 2.33,0 0,4.394 -32.658,0 0,-4.394 2.607,0 c 5.303,0 7.961,-3.798 7.961,-11.392 l 0,-6.856 -32.795,0 0,-6.861 34.578,-50.497 9.883,0 0,51.592 0.82,0 c 3.383,0 5.852,-2.608 7.408,-7.816 l 4.115,0 -1.92,13.583 -10.423,-10e-4 0,0 z m -11.666,-5.766 0,-41.458 -27.893,41.458 27.893,0 z"
       id="path4440" />
  </g>
</svg>
