<?xml version="1.0" encoding="UTF-8" standalone="no"?>
<!-- Created with Inkscape (http://www.inkscape.org/) -->

<svg
   xmlns:dc="http://purl.org/dc/elements/1.1/"
   xmlns:cc="http://creativecommons.org/ns#"
   xmlns:rdf="http://www.w3.org/1999/02/22-rdf-syntax-ns#"
   xmlns:svg="http://www.w3.org/2000/svg"
   xmlns="http://www.w3.org/2000/svg"
   xmlns:sodipodi="http://sodipodi.sourceforge.net/DTD/sodipodi-0.dtd"
   xmlns:inkscape="http://www.inkscape.org/namespaces/inkscape"
   width="28.222221mm"
   height="28.222221mm"
   viewBox="0 0 99.999997 99.999997"
   id="svg5562"
   version="1.1"
   inkscape:version="0.91 r13725"
   sodipodi:docname="5_mana.svg">
  <defs
     id="defs5564" />
  <sodipodi:namedview
     id="base"
     pagecolor="#ffffff"
     bordercolor="#666666"
     borderopacity="1.0"
     inkscape:pageopacity="0.0"
     inkscape:pageshadow="2"
     inkscape:zoom="0.35"
     inkscape:cx="285"
     inkscape:cy="-524.28571"
     inkscape:document-units="px"
     inkscape:current-layer="layer1"
     showgrid="false"
     fit-margin-top="0"
     fit-margin-left="0"
     fit-margin-right="0"
     fit-margin-bottom="0"
     inkscape:window-width="1678"
     inkscape:window-height="1029"
     inkscape:window-x="0"
     inkscape:window-y="19"
     inkscape:window-maximized="1" />
  <metadata
     id="metadata5567">
    <rdf:RDF>
      <cc:Work
         rdf:about="">
        <dc:format>image/svg+xml</dc:format>
        <dc:type
           rdf:resource="http://purl.org/dc/dcmitype/StillImage" />
        <dc:title></dc:title>
      </cc:Work>
    </rdf:RDF>
  </metadata>
  <g
     inkscape:label="Layer 1"
     inkscape:groupmode="layer"
     id="layer1"
     transform="translate(-90,91.923509)">
    <g
       transform="translate(510,118.07849)"
       id="g4442">
      <circle
         style="fill:#cac5c0"
         cx="-370"
         cy="-160.002"
         r="50"
         id="circle4444" />
    </g>
    <path
       inkscape:connector-curvature="0"
       style="fill:#0d0f0f"
       d="m 124.957,-80.569512 28.941,0 c 3.754,0 5.988,-0.45 6.703,-1.352 l 4.156,0 -2.422,10.925 -35.314,0 -3.408,15.789 c 5.127,-2.07 9.668,-3.104 13.625,-3.104 7.729,0 14.25,2.587 19.559,7.758 5.305,5.171 7.961,11.622 7.961,19.357 0,8.996 -3.465,16.237 -10.394,21.7220003 -6.385,5.039 -14.162,7.553 -23.338,7.553 -5.395,0 -10.66,-0.808 -15.785,-2.426 l 1.617,-4.046 c 4.32,1.169 8.141,1.751 11.469,1.751 6.654,0 12.477,-2.18 17.473,-6.5440003 4.99,-4.358 7.488,-9.826 7.488,-16.392 0,-5.665 -1.844,-10.32 -5.533,-13.959 -3.689,-3.646 -8.365,-5.468 -14.033,-5.468 -5.213,0 -10.07,1.8 -14.568,5.396 l -2.701,-0.538 8.504,-36.422 z"
       id="path4446" />
  </g>
</svg>
