<?xml version="1.0" encoding="UTF-8" standalone="no"?>
<!-- Created with Inkscape (http://www.inkscape.org/) -->

<svg
   xmlns:dc="http://purl.org/dc/elements/1.1/"
   xmlns:cc="http://creativecommons.org/ns#"
   xmlns:rdf="http://www.w3.org/1999/02/22-rdf-syntax-ns#"
   xmlns:svg="http://www.w3.org/2000/svg"
   xmlns="http://www.w3.org/2000/svg"
   xmlns:sodipodi="http://sodipodi.sourceforge.net/DTD/sodipodi-0.dtd"
   xmlns:inkscape="http://www.inkscape.org/namespaces/inkscape"
   width="28.222221mm"
   height="28.222221mm"
   viewBox="0 0 99.999997 99.999997"
   id="svg5610"
   version="1.1"
   inkscape:version="0.91 r13725"
   sodipodi:docname="6_mana.svg">
  <defs
     id="defs5612" />
  <sodipodi:namedview
     id="base"
     pagecolor="#ffffff"
     bordercolor="#666666"
     borderopacity="1.0"
     inkscape:pageopacity="0.0"
     inkscape:pageshadow="2"
     inkscape:zoom="0.35"
     inkscape:cx="-557.8571"
     inkscape:cy="-447.14285"
     inkscape:document-units="px"
     inkscape:current-layer="layer1"
     showgrid="false"
     fit-margin-top="0"
     fit-margin-left="0"
     fit-margin-right="0"
     fit-margin-bottom="0"
     inkscape:window-width="1678"
     inkscape:window-height="1029"
     inkscape:window-x="0"
     inkscape:window-y="19"
     inkscape:window-maximized="1" />
  <metadata
     id="metadata5615">
    <rdf:RDF>
      <cc:Work
         rdf:about="">
        <dc:format>image/svg+xml</dc:format>
        <dc:type
           rdf:resource="http://purl.org/dc/dcmitype/StillImage" />
        <dc:title></dc:title>
      </cc:Work>
    </rdf:RDF>
  </metadata>
  <g
     inkscape:label="Layer 1"
     inkscape:groupmode="layer"
     id="layer1"
     transform="translate(-932.8571,14.780649)">
    <g
       transform="translate(1247.8571,195.22135)"
       id="g4448">
      <circle
         style="fill:#cac5c0"
         cx="-265"
         cy="-160.002"
         r="50"
         id="circle4450" />
    </g>
    <path
       inkscape:connector-curvature="0"
       style="fill:#0d0f0f"
       d="m 969.43714,29.896345 c 5.934,-5.577 11.91,-8.364 17.939,-8.364 6.564,0 11.828,2.606 15.78696,7.821 3.682,4.77 5.529,10.521 5.529,17.27 0,7.376 -2.158,13.849 -6.475,19.425 -4.76796,6.114 -10.70296,9.174 -17.80696,9.174 -8.547,0 -15.381,-3.69 -20.504,-11.063 -4.59,-6.477 -6.883,-14.167 -6.883,-23.071 0,-9.44 2.607,-18.141 7.824,-26.101 5.213,-7.9579995 12.184,-13.6019995 20.906,-16.9279995 4.947,-1.888 10.168,-2.839 15.64996,-2.839 l 0,4.18399998 c -11.69096,0.631 -20.41396,5.30800002 -26.17396,14.03099952 -2.958,4.501 -4.895,9.983 -5.792,16.461 z m -0.812,8.092 c -0.086,1.618 -0.133,3.238 -0.133,4.857 0,6.203 1.078,11.96 3.236,17.269 2.785,6.922 6.883,10.385 12.279,10.385 4.674,0 8.18,-2.381 10.52,-7.151 1.797,-3.684 2.697,-8.135 2.697,-13.355 0,-5.571 -0.857,-10.342 -2.563,-14.299 -2.34,-5.396 -5.936,-8.092 -10.793,-8.092 -5.933,-0.001 -11.017,3.464 -15.243,10.386 z"
       id="path4452" />
  </g>
</svg>
