<?xml version="1.0" encoding="UTF-8" standalone="no"?>
<!-- Created with Inkscape (http://www.inkscape.org/) -->

<svg
   xmlns:dc="http://purl.org/dc/elements/1.1/"
   xmlns:cc="http://creativecommons.org/ns#"
   xmlns:rdf="http://www.w3.org/1999/02/22-rdf-syntax-ns#"
   xmlns:svg="http://www.w3.org/2000/svg"
   xmlns="http://www.w3.org/2000/svg"
   xmlns:sodipodi="http://sodipodi.sourceforge.net/DTD/sodipodi-0.dtd"
   xmlns:inkscape="http://www.inkscape.org/namespaces/inkscape"
   width="28.222221mm"
   height="28.222221mm"
   viewBox="0 0 99.999997 99.999997"
   id="svg5658"
   version="1.1"
   inkscape:version="0.91 r13725"
   sodipodi:docname="7_mana.svg">
  <defs
     id="defs5660" />
  <sodipodi:namedview
     id="base"
     pagecolor="#ffffff"
     bordercolor="#666666"
     borderopacity="1.0"
     inkscape:pageopacity="0.0"
     inkscape:pageshadow="2"
     inkscape:zoom="0.35"
     inkscape:cx="-906.4286"
     inkscape:cy="-258.57142"
     inkscape:document-units="px"
     inkscape:current-layer="layer1"
     showgrid="false"
     fit-margin-top="0"
     fit-margin-left="0"
     fit-margin-right="0"
     fit-margin-bottom="0"
     inkscape:window-width="1678"
     inkscape:window-height="1029"
     inkscape:window-x="0"
     inkscape:window-y="19"
     inkscape:window-maximized="1" />
  <metadata
     id="metadata5663">
    <rdf:RDF>
      <cc:Work
         rdf:about="">
        <dc:format>image/svg+xml</dc:format>
        <dc:type
           rdf:resource="http://purl.org/dc/dcmitype/StillImage" />
        <dc:title></dc:title>
      </cc:Work>
    </rdf:RDF>
  </metadata>
  <g
     inkscape:label="Layer 1"
     inkscape:groupmode="layer"
     id="layer1"
     transform="translate(-1281.4286,-173.79078)">
    <g
       transform="translate(1491.4286,383.79278)"
       id="g4454">
      <circle
         style="fill:#cac5c0"
         cx="-160"
         cy="-160.002"
         r="50"
         id="circle4456" />
    </g>
    <path
       inkscape:connector-curvature="0"
       style="fill:#0d0f0f"
       d="m 1334.9226,263.79277 -11.643,0 0,-1.238 c 0,-7.396 2.328,-16.659 6.98,-27.808 7.035,-16.799 13.52,-29.673 19.453,-38.624 l 0.822,-1.232 -27.256,0 c -3.93,0 -6.92,0.819 -8.975,2.463 -2.059,1.645 -3.582,4.387 -4.586,8.222 l -4.52,0 4.926,-21.782 2.881,0 c 1.734,0.914 4.742,1.371 9.041,1.371 l 35.609,0 0,6.165 c -1.275,1.829 -2.918,4.75 -4.926,8.768 -3.838,7.485 -7.352,16.208 -10.553,26.163 -4.743,14.702 -7.163,27.209 -7.253,37.532 z"
       id="path4458" />
  </g>
</svg>
