<?xml version="1.0" encoding="UTF-8" standalone="no"?>
<!-- Created with Inkscape (http://www.inkscape.org/) -->

<svg
   xmlns:dc="http://purl.org/dc/elements/1.1/"
   xmlns:cc="http://creativecommons.org/ns#"
   xmlns:rdf="http://www.w3.org/1999/02/22-rdf-syntax-ns#"
   xmlns:svg="http://www.w3.org/2000/svg"
   xmlns="http://www.w3.org/2000/svg"
   xmlns:sodipodi="http://sodipodi.sourceforge.net/DTD/sodipodi-0.dtd"
   xmlns:inkscape="http://www.inkscape.org/namespaces/inkscape"
   width="28.222221mm"
   height="28.222221mm"
   viewBox="0 0 99.999997 99.999997"
   id="svg5279"
   version="1.1"
   inkscape:version="0.91 r13725"
   sodipodi:docname="green_mana.svg">
  <defs
     id="defs5281" />
  <sodipodi:namedview
     id="base"
     pagecolor="#ffffff"
     bordercolor="#666666"
     borderopacity="1.0"
     inkscape:pageopacity="0.0"
     inkscape:pageshadow="2"
     inkscape:zoom="0.35"
     inkscape:cx="687.85714"
     inkscape:cy="-447.14286"
     inkscape:document-units="px"
     inkscape:current-layer="layer1"
     showgrid="false"
     fit-margin-top="0"
     fit-margin-left="0"
     fit-margin-right="0"
     fit-margin-bottom="0"
     inkscape:window-width="1678"
     inkscape:window-height="1029"
     inkscape:window-x="0"
     inkscape:window-y="19"
     inkscape:window-maximized="1" />
  <metadata
     id="metadata5284">
    <rdf:RDF>
      <cc:Work
         rdf:about="">
        <dc:format>image/svg+xml</dc:format>
        <dc:type
           rdf:resource="http://purl.org/dc/dcmitype/StillImage" />
        <dc:title></dc:title>
      </cc:Work>
    </rdf:RDF>
  </metadata>
  <g
     inkscape:label="Layer 1"
     inkscape:groupmode="layer"
     id="layer1"
     transform="translate(312.85714,14.780652)">
    <path
       inkscape:connector-curvature="0"
       style="fill:#a3c095"
       d="m -212.85714,35.217348 c 0,27.615 -22.385,50.002 -50.002,50.002 -27.613,0 -49.998,-22.387 -49.998,-50.002 0,-27.6130004 22.385,-49.998 49.998,-49.998 27.617,0 50.002,22.3849996 50.002,49.998 z"
       id="path4540" />
    <path
       inkscape:connector-curvature="0"
       style="fill:#0d0f0f"
       d="m -219.09514,41.444348 c 0,1.668 -0.645,3.164 -1.936,4.498 -1.289,1.332 -2.77,1.998 -4.436,1.998 -2.662,0 -4.623,-1.25 -5.869,-3.748 l -5.871,-0.25 c -1.252,0 -3.709,0.543 -7.371,1.625 -3.914,1.082 -6.164,1.957 -6.746,2.623 -0.916,0.998 -1.664,3.332 -2.248,6.996 -0.502,2.998 -0.748,5.205 -0.748,6.621 0,2.246 0.352,3.893 1.061,4.934 0.709,1.041 2.166,1.916 4.371,2.623 2.205,0.707 3.561,1.104 4.061,1.187 0.332,0 0.873,-0.041 1.625,-0.125 l 1.498,0 c 1.08,0 2.205,0.17 3.373,0.5 1.666,0.5 2.375,1.166 2.125,2 -1.168,-0.166 -3.207,0.084 -6.121,0.75 l 3.496,1.748 c 0,1 -1.416,1.498 -4.246,1.498 -0.752,0 -1.771,-0.166 -3.063,-0.498 -1.291,-0.336 -2.145,-0.5 -2.559,-0.5 l -1.625,0 c -0.082,0.832 -0.334,2.08 -0.75,3.746 -1.418,-0.084 -3.08,-0.918 -4.996,-2.498 -1.918,-1.58 -3.123,-2.373 -3.621,-2.373 -0.502,0 -1.211,0.793 -2.125,2.373 -0.918,1.58 -1.375,2.664 -1.375,3.248 -1.082,-0.584 -1.996,-1.668 -2.75,-3.248 -0.332,-1.084 -0.707,-2.166 -1.121,-3.248 -0.832,0.084 -2.375,1.834 -4.621,5.248 l -0.627,0 c -0.166,-0.252 -0.795,-2 -1.873,-5.248 -2.582,-0.832 -4.996,-1.248 -7.246,-1.248 -1.082,0 -2.748,0.25 -4.996,0.748 l -3.496,-0.248 c 0.498,-0.5 1.955,-1.457 4.371,-2.873 2.83,-1.666 4.996,-2.5 6.496,-2.5 0.246,0 0.578,0.043 1,0.125 0.414,0.086 0.75,0.125 1,0.125 0.578,0 1.518,-0.312 2.809,-0.938 1.291,-0.623 2.039,-1.186 2.246,-1.684 0.211,-0.504 0.316,-1.793 0.316,-3.875 0,-4.746 -1.25,-8.285 -3.75,-10.617 -2.168,-2.082 -5.746,-3.58 -10.744,-4.498 -1.332,4.746 -5.08,7.123 -11.24,7.123 -2,0 -3.998,-1.207 -5.996,-3.623 -1.996,-2.416 -2.996,-4.623 -2.996,-6.621 0,-3.082 1.287,-5.621 3.869,-7.623 -2.08,-2.162 -3.121,-4.369 -3.121,-6.617 0,-2.084 0.643,-3.914 1.936,-5.5 1.291,-1.578 2.977,-2.496 5.059,-2.748 -0.166,-2.662 0.707,-4.496 2.623,-5.496 -0.916,-0.914 -1.373,-2.537 -1.373,-4.869 0,-2.7480004 0.916,-5.0390004 2.748,-6.8710004 1.83,-1.832 4.121,-2.75000002 6.869,-2.75000002 3,0 5.457,1.04500002 7.371,3.12500002 2.416,-8.244 7.621,-12.367 15.613,-12.367 4.164,0 7.828,1.666 10.994,4.998 1.166,1.248 1.748,1.916 1.748,1.996 -1,0 -0.498,-0.188 1.5,-0.561 1.996,-0.375 3.453,-0.563 4.373,-0.563 3.246,0 6.119,1.207 8.619,3.623 2.164,2.166 3.664,4.912 4.498,8.244 0.58,0.084 1.498,0.332 2.748,0.7480004 1.83,0.92 2.748,2.498 2.748,4.748 0,0.418 -0.336,1.209 -1,2.373 5.328,2.998 7.994,7.162 7.994,12.492 0,1.498 -0.582,3.584 -1.748,6.247 2.166,1.247 3.246,3.081 3.246,5.495 z m -51.467,5.496 0,-1.623 c 0,-1.914 -0.936,-3.664 -2.809,-5.246 -1.875,-1.582 -3.77,-2.373 -5.684,-2.373 -2.334,0 -4.496,0.541 -6.496,1.621 4.413,-0.248 9.411,2.293 14.989,7.621 z m -2.246,-15.489 c -1.25,-1.418 -2.332,-2.875 -3.25,-4.373 -3.498,0.916 -5.246,1.957 -5.246,3.121 1,-0.08 2.457,0.105 4.371,0.564 1.914,0.459 3.291,0.688 4.125,0.688 z m 7.621,-3.873 0,-5.496 c -2,-0.332 -3.211,-0.5 -3.623,-0.5 l 0,1.873 3.623,4.123 z m 16.238,-3.498 c -1,-0.416 -2.875,-1.25 -5.621,-2.498 l 0,10.742 c 3.912,-2.25 5.785,-4.998 5.621,-8.244 z m 6.867,14.741 -2.746,-3.373 c -1.664,1.167 -3.352,2.354 -5.061,3.561 -1.709,1.207 -3.186,2.563 -4.432,4.06 3.747,-2.002 7.829,-3.414 12.239,-4.248 z"
       id="path4542" />
  </g>
</svg>
